<mxfile host="Electron" agent="Mozilla/5.0 (Macintosh; Intel Mac OS X 10_15_7) AppleWebKit/537.36 (KHTML, like Gecko) draw.io/26.0.9 Chrome/128.0.6613.186 Electron/32.2.5 Safari/537.36" version="26.0.9">
  <diagram name="Page-1" id="IrYn45HdauGdHS_oQLYs">
    <mxGraphModel dx="1223" dy="901" grid="1" gridSize="10" guides="1" tooltips="1" connect="1" arrows="1" fold="1" page="1" pageScale="1" pageWidth="1169" pageHeight="827" math="1" shadow="0">
      <root>
        <mxCell id="0" />
        <mxCell id="1" parent="0" />
        <mxCell id="LUtMKzU3TpNbmgjejrSW-3" value="" style="edgeStyle=orthogonalEdgeStyle;rounded=0;orthogonalLoop=1;jettySize=auto;html=1;fontSize=18;strokeWidth=1.9685;" edge="1" parent="1" source="LUtMKzU3TpNbmgjejrSW-1" target="LUtMKzU3TpNbmgjejrSW-2">
          <mxGeometry relative="1" as="geometry" />
        </mxCell>
        <mxCell id="LUtMKzU3TpNbmgjejrSW-1" value="" style="ellipse;whiteSpace=wrap;html=1;aspect=fixed;fontSize=18;strokeWidth=1.9685;" vertex="1" parent="1">
          <mxGeometry x="380" y="340" width="40" height="40" as="geometry" />
        </mxCell>
        <mxCell id="LUtMKzU3TpNbmgjejrSW-5" value="" style="edgeStyle=orthogonalEdgeStyle;rounded=0;orthogonalLoop=1;jettySize=auto;html=1;fontSize=18;strokeWidth=1.9685;" edge="1" parent="1" source="LUtMKzU3TpNbmgjejrSW-2" target="LUtMKzU3TpNbmgjejrSW-4">
          <mxGeometry relative="1" as="geometry" />
        </mxCell>
        <mxCell id="LUtMKzU3TpNbmgjejrSW-2" value="P.I.D" style="whiteSpace=wrap;html=1;fontSize=18;strokeWidth=1.9685;fillColor=#dae8fc;strokeColor=#6c8ebf;" vertex="1" parent="1">
          <mxGeometry x="460" y="330" width="120" height="60" as="geometry" />
        </mxCell>
        <mxCell id="LUtMKzU3TpNbmgjejrSW-7" value="" style="edgeStyle=orthogonalEdgeStyle;rounded=0;orthogonalLoop=1;jettySize=auto;html=1;fontSize=18;strokeWidth=1.9685;" edge="1" parent="1" source="LUtMKzU3TpNbmgjejrSW-4" target="LUtMKzU3TpNbmgjejrSW-6">
          <mxGeometry relative="1" as="geometry" />
        </mxCell>
        <mxCell id="LUtMKzU3TpNbmgjejrSW-4" value="" style="whiteSpace=wrap;html=1;fontSize=18;strokeWidth=1.9685;fillColor=#ffe6cc;strokeColor=#d79b00;" vertex="1" parent="1">
          <mxGeometry x="630" y="270" width="190" height="180" as="geometry" />
        </mxCell>
        <mxCell id="LUtMKzU3TpNbmgjejrSW-11" style="edgeStyle=orthogonalEdgeStyle;rounded=0;orthogonalLoop=1;jettySize=auto;html=1;fontSize=18;strokeWidth=1.9685;" edge="1" parent="1" source="LUtMKzU3TpNbmgjejrSW-6" target="LUtMKzU3TpNbmgjejrSW-10">
          <mxGeometry relative="1" as="geometry" />
        </mxCell>
        <mxCell id="LUtMKzU3TpNbmgjejrSW-12" style="edgeStyle=orthogonalEdgeStyle;rounded=0;orthogonalLoop=1;jettySize=auto;html=1;entryX=0.5;entryY=1;entryDx=0;entryDy=0;fontSize=18;strokeWidth=1.9685;" edge="1" parent="1" source="LUtMKzU3TpNbmgjejrSW-6" target="LUtMKzU3TpNbmgjejrSW-1">
          <mxGeometry relative="1" as="geometry">
            <Array as="points">
              <mxPoint x="1000" y="360" />
              <mxPoint x="1000" y="520" />
              <mxPoint x="400" y="520" />
            </Array>
          </mxGeometry>
        </mxCell>
        <mxCell id="LUtMKzU3TpNbmgjejrSW-6" value="\[G(s)\]" style="whiteSpace=wrap;html=1;fontSize=18;strokeWidth=1.9685;fillColor=#f5f5f5;fontColor=#333333;strokeColor=#666666;" vertex="1" parent="1">
          <mxGeometry x="860" y="330" width="120" height="60" as="geometry" />
        </mxCell>
        <mxCell id="LUtMKzU3TpNbmgjejrSW-9" style="edgeStyle=orthogonalEdgeStyle;rounded=0;orthogonalLoop=1;jettySize=auto;html=1;entryX=0;entryY=0.5;entryDx=0;entryDy=0;fontSize=18;strokeWidth=1.9685;" edge="1" parent="1" source="LUtMKzU3TpNbmgjejrSW-8" target="LUtMKzU3TpNbmgjejrSW-1">
          <mxGeometry relative="1" as="geometry" />
        </mxCell>
        <mxCell id="LUtMKzU3TpNbmgjejrSW-8" value="Reference" style="text;html=1;align=center;verticalAlign=middle;resizable=0;points=[];autosize=1;strokeColor=none;fillColor=none;fontSize=18;strokeWidth=1.9685;" vertex="1" parent="1">
          <mxGeometry x="210" y="340" width="110" height="40" as="geometry" />
        </mxCell>
        <mxCell id="LUtMKzU3TpNbmgjejrSW-10" value="\(y(t)\)" style="text;html=1;align=center;verticalAlign=middle;resizable=0;points=[];autosize=1;strokeColor=none;fillColor=none;fontSize=18;strokeWidth=1.9685;" vertex="1" parent="1">
          <mxGeometry x="1050" y="340" width="70" height="40" as="geometry" />
        </mxCell>
        <mxCell id="LUtMKzU3TpNbmgjejrSW-13" value="\[-\]" style="text;html=1;align=center;verticalAlign=middle;resizable=0;points=[];autosize=1;strokeColor=none;fillColor=none;fontSize=18;strokeWidth=1.9685;" vertex="1" parent="1">
          <mxGeometry x="355" y="379" width="50" height="40" as="geometry" />
        </mxCell>
        <mxCell id="LUtMKzU3TpNbmgjejrSW-14" value="\[+\]" style="text;html=1;align=center;verticalAlign=middle;resizable=0;points=[];autosize=1;strokeColor=none;fillColor=none;fontSize=18;strokeWidth=1.9685;" vertex="1" parent="1">
          <mxGeometry x="330" y="325" width="50" height="40" as="geometry" />
        </mxCell>
        <mxCell id="LUtMKzU3TpNbmgjejrSW-17" value="\[\bar u\]" style="text;html=1;align=center;verticalAlign=middle;resizable=0;points=[];autosize=1;strokeColor=none;fillColor=none;fontSize=18;strokeWidth=1.9685;" vertex="1" parent="1">
          <mxGeometry x="560" y="330" width="90" height="40" as="geometry" />
        </mxCell>
        <mxCell id="LUtMKzU3TpNbmgjejrSW-18" value="\[u\]" style="text;html=1;align=center;verticalAlign=middle;resizable=0;points=[];autosize=1;strokeColor=none;fillColor=none;fontSize=18;strokeWidth=1.9685;" vertex="1" parent="1">
          <mxGeometry x="810" y="325" width="50" height="40" as="geometry" />
        </mxCell>
        <mxCell id="LUtMKzU3TpNbmgjejrSW-28" value="" style="group;strokeWidth=1.9685;" vertex="1" connectable="0" parent="1">
          <mxGeometry x="610" y="280" width="245" height="160" as="geometry" />
        </mxCell>
        <mxCell id="LUtMKzU3TpNbmgjejrSW-15" value="" style="endArrow=none;html=1;rounded=0;strokeWidth=1.9685;" edge="1" parent="LUtMKzU3TpNbmgjejrSW-28">
          <mxGeometry width="50" height="50" relative="1" as="geometry">
            <mxPoint x="115" y="160" as="sourcePoint" />
            <mxPoint x="115" as="targetPoint" />
          </mxGeometry>
        </mxCell>
        <mxCell id="LUtMKzU3TpNbmgjejrSW-16" value="" style="endArrow=none;html=1;rounded=0;strokeWidth=1.9685;" edge="1" parent="LUtMKzU3TpNbmgjejrSW-28">
          <mxGeometry width="50" height="50" relative="1" as="geometry">
            <mxPoint x="35" y="80" as="sourcePoint" />
            <mxPoint x="195" y="80" as="targetPoint" />
          </mxGeometry>
        </mxCell>
        <mxCell id="LUtMKzU3TpNbmgjejrSW-19" value="" style="endArrow=none;html=1;rounded=0;strokeWidth=1.9685;" edge="1" parent="LUtMKzU3TpNbmgjejrSW-28">
          <mxGeometry width="50" height="50" relative="1" as="geometry">
            <mxPoint x="35" y="120" as="sourcePoint" />
            <mxPoint x="195" y="40" as="targetPoint" />
            <Array as="points">
              <mxPoint x="75" y="120" />
              <mxPoint x="155" y="40" />
            </Array>
          </mxGeometry>
        </mxCell>
        <mxCell id="LUtMKzU3TpNbmgjejrSW-22" value="" style="endArrow=none;dashed=1;html=1;dashPattern=1 3;strokeWidth=1.9685;rounded=0;" edge="1" parent="LUtMKzU3TpNbmgjejrSW-28">
          <mxGeometry width="50" height="50" relative="1" as="geometry">
            <mxPoint x="155" y="80" as="sourcePoint" />
            <mxPoint x="115" y="40" as="targetPoint" />
            <Array as="points">
              <mxPoint x="155" y="40" />
            </Array>
          </mxGeometry>
        </mxCell>
        <mxCell id="LUtMKzU3TpNbmgjejrSW-23" value="\[u_\text{max}\]" style="text;html=1;align=center;verticalAlign=middle;resizable=0;points=[];autosize=1;strokeColor=none;fillColor=none;fontSize=18;strokeWidth=1.9685;" vertex="1" parent="LUtMKzU3TpNbmgjejrSW-28">
          <mxGeometry x="90" y="70" width="140" height="40" as="geometry" />
        </mxCell>
        <mxCell id="LUtMKzU3TpNbmgjejrSW-24" value="\[u_\text{max}\]" style="text;html=1;align=center;verticalAlign=middle;resizable=0;points=[];autosize=1;strokeColor=none;fillColor=none;fontSize=18;strokeWidth=1.9685;" vertex="1" parent="LUtMKzU3TpNbmgjejrSW-28">
          <mxGeometry x="15" y="10" width="140" height="40" as="geometry" />
        </mxCell>
        <mxCell id="LUtMKzU3TpNbmgjejrSW-25" value="\[u_\text{min}\]" style="text;html=1;align=center;verticalAlign=middle;resizable=0;points=[];autosize=1;strokeColor=none;fillColor=none;fontSize=18;strokeWidth=1.9685;" vertex="1" parent="LUtMKzU3TpNbmgjejrSW-28">
          <mxGeometry y="47" width="140" height="40" as="geometry" />
        </mxCell>
        <mxCell id="LUtMKzU3TpNbmgjejrSW-26" value="\[u_\text{min}\]" style="text;html=1;align=center;verticalAlign=middle;resizable=0;points=[];autosize=1;strokeColor=none;fillColor=none;fontSize=18;strokeWidth=1.9685;" vertex="1" parent="LUtMKzU3TpNbmgjejrSW-28">
          <mxGeometry x="65" y="100" width="140" height="40" as="geometry" />
        </mxCell>
        <mxCell id="LUtMKzU3TpNbmgjejrSW-27" value="" style="endArrow=none;dashed=1;html=1;dashPattern=1 3;strokeWidth=1.9685;rounded=0;" edge="1" parent="LUtMKzU3TpNbmgjejrSW-28">
          <mxGeometry width="50" height="50" relative="1" as="geometry">
            <mxPoint x="75" y="80" as="sourcePoint" />
            <mxPoint x="115" y="120" as="targetPoint" />
            <Array as="points">
              <mxPoint x="75" y="120" />
            </Array>
          </mxGeometry>
        </mxCell>
        <mxCell id="LUtMKzU3TpNbmgjejrSW-20" value="\[\bar u\]" style="text;html=1;align=center;verticalAlign=middle;resizable=0;points=[];autosize=1;strokeColor=none;fillColor=none;fontSize=18;strokeWidth=1.9685;" vertex="1" parent="LUtMKzU3TpNbmgjejrSW-28">
          <mxGeometry x="155" y="60" width="90" height="40" as="geometry" />
        </mxCell>
        <mxCell id="LUtMKzU3TpNbmgjejrSW-21" value="\[u\]" style="text;html=1;align=center;verticalAlign=middle;resizable=0;points=[];autosize=1;strokeColor=none;fillColor=none;fontSize=18;strokeWidth=1.9685;" vertex="1" parent="LUtMKzU3TpNbmgjejrSW-28">
          <mxGeometry x="80" y="-20" width="50" height="40" as="geometry" />
        </mxCell>
        <mxCell id="LUtMKzU3TpNbmgjejrSW-29" value="Saturation" style="text;html=1;align=center;verticalAlign=middle;resizable=0;points=[];autosize=1;strokeColor=none;fillColor=none;fontSize=18;" vertex="1" parent="1">
          <mxGeometry x="670" y="235" width="110" height="40" as="geometry" />
        </mxCell>
      </root>
    </mxGraphModel>
  </diagram>
</mxfile>
